<svg width="24" height="24" viewBox="0 0 24 24" fill="none" xmlns="http://www.w3.org/2000/svg">
<path d="M20.6667 18H11.3333L6 22V18H3.33333C2.97971 18 2.64057 17.8595 2.39052 17.6095C2.14048 17.3594 2 17.0203 2 16.6667V3.33333C2 2.97971 2.14048 2.64057 2.39052 2.39052C2.64057 2.14048 2.97971 2 3.33333 2H20.6667C21.0203 2 21.3594 2.14048 21.6095 2.39052C21.8595 2.64057 22 2.97971 22 3.33333V16.6667C22 17.0203 21.8595 17.3594 21.6095 17.6095C21.3594 17.8595 21.0203 18 20.6667 18Z" stroke="#282B35" stroke-width="2" stroke-linecap="round" stroke-linejoin="round"/>
<path fill-rule="evenodd" clip-rule="evenodd" d="M11.4187 6.48891C11.6246 6.38233 11.8559 6.33442 12.0873 6.35042C12.3186 6.36641 12.5411 6.4457 12.7304 6.5796C12.9198 6.71351 13.0686 6.89688 13.1608 7.10968C13.253 7.32249 13.2848 7.55653 13.253 7.78623C13.2211 8.01593 13.1267 8.23245 12.9801 8.41212C12.8335 8.59179 12.6403 8.72771 12.4217 8.80501C12.0789 8.92621 11.7821 9.15074 11.5722 9.44767C11.3625 9.7445 11.2499 10.0991 11.25 10.4625V10.4626L11.25 10.4629L11.25 10.6345C11.25 11.0487 11.5858 11.3845 12 11.3845C12.4142 11.3845 12.75 11.0487 12.75 10.6345V10.4625V10.4621C12.75 10.4088 12.7665 10.3569 12.7972 10.3134C12.828 10.2699 12.8714 10.237 12.9217 10.2192C13.3996 10.0503 13.8218 9.75318 14.1423 9.36045C14.4627 8.96772 14.6691 8.49445 14.7387 7.99238C14.8084 7.4903 14.7387 6.97874 14.5373 6.51359C14.3358 6.04845 14.0104 5.64763 13.5966 5.35494C13.1827 5.06225 12.6964 4.88895 12.1907 4.85399C11.685 4.81903 11.1795 4.92374 10.7293 5.1567C10.2791 5.38965 9.90162 5.74187 9.63809 6.17486C9.37456 6.60786 9.23513 7.10497 9.23503 7.61185C9.23495 8.02606 9.57067 8.36191 9.98489 8.36199C10.3991 8.36207 10.735 8.02635 10.735 7.61214C10.7351 7.38024 10.7989 7.15281 10.9194 6.95472C11.04 6.75662 11.2127 6.59548 11.4187 6.48891ZM11.4444 12.1685C11.6089 12.0587 11.8022 12 12 12C12.2652 12 12.5196 12.1054 12.7071 12.2929C12.8946 12.4804 13 12.7348 13 13C13 13.1978 12.9414 13.3911 12.8315 13.5556C12.7216 13.72 12.5654 13.8482 12.3827 13.9239C12.2 13.9996 11.9989 14.0194 11.8049 13.9808C11.6109 13.9422 11.4327 13.847 11.2929 13.7071C11.153 13.5673 11.0578 13.3891 11.0192 13.1951C10.9806 13.0011 11.0004 12.8 11.0761 12.6173C11.1518 12.4346 11.28 12.2784 11.4444 12.1685Z" fill="#282B35"/>
</svg>
