<svg width="24" height="24" viewBox="0 0 24 24" fill="none" xmlns="http://www.w3.org/2000/svg">
<path fill-rule="evenodd" clip-rule="evenodd" d="M5.08557 3.07934C4.71509 2.8941 4.26459 3.04427 4.07934 3.41475C3.8941 3.78524 4.04427 4.23574 4.41475 4.42098L6.44456 5.43589V8.63538L6.44455 8.63895V15.9721C6.44455 16.3864 6.78034 16.7221 7.19455 16.7221H15.2104H15.2105C15.8808 16.7222 16.534 16.5115 17.0779 16.1197C17.6217 15.728 18.0286 15.1751 18.2409 14.5393L18.241 14.5389L20.1281 8.87606C20.2043 8.64736 20.1659 8.39596 20.0249 8.2004C19.884 8.00483 19.6576 7.88895 19.4165 7.88895H7.94456V4.97236C7.94456 4.68828 7.78406 4.42859 7.52997 4.30154L5.08557 3.07934ZM7.94455 15.2221V9.38895L16.8179 14.0647C16.7053 14.4018 16.4895 14.6949 16.2012 14.9026C15.9127 15.1104 15.5662 15.2222 15.2106 15.2221H15.2105H7.94455ZM7.94455 9.38895L16.8181 14.0643L18.3761 9.38895H7.94455ZM8.41675 18.8838C8.05577 18.8838 7.70957 19.0272 7.45431 19.2825C7.19905 19.5378 7.05565 19.884 7.05565 20.2449C7.05565 20.5141 7.13548 20.7773 7.28504 21.0011C7.4346 21.225 7.64717 21.3994 7.89588 21.5024C8.14459 21.6054 8.41826 21.6324 8.68229 21.5799C8.94631 21.5274 9.18884 21.3977 9.37919 21.2074C9.56955 21.017 9.69918 20.7745 9.7517 20.5105C9.80421 20.2465 9.77726 19.9728 9.67424 19.7241C9.57122 19.4754 9.39677 19.2628 9.17294 19.1132C8.94911 18.9637 8.68595 18.8838 8.41675 18.8838ZM14.7875 19.2825C15.0427 19.0272 15.3889 18.8838 15.7499 18.8838C16.0191 18.8838 16.2823 18.9637 16.5061 19.1132C16.7299 19.2628 16.9044 19.4754 17.0074 19.7241C17.1104 19.9728 17.1374 20.2465 17.0849 20.5105C17.0324 20.7745 16.9027 21.017 16.7124 21.2074C16.522 21.3977 16.2795 21.5274 16.0155 21.5799C15.7514 21.6324 15.4778 21.6054 15.2291 21.5024C14.9804 21.3994 14.7678 21.225 14.6182 21.0011C14.4687 20.7773 14.3888 20.5141 14.3888 20.2449C14.3888 19.884 14.5322 19.5378 14.7875 19.2825Z" fill="#282B35"/>
</svg>
