<svg width="24" height="24" viewBox="0 0 24 24" fill="none" xmlns="http://www.w3.org/2000/svg">
<path fill-rule="evenodd" clip-rule="evenodd" d="M6.17647 3.75C6.17647 3.33579 6.51226 3 6.92647 3H11.1618C11.576 3 11.9118 3.33579 11.9118 3.75V19.9412H14.6471V7.98529C14.6471 7.57108 14.9828 7.23529 15.3971 7.23529H19.6324C20.0466 7.23529 20.3824 7.57108 20.3824 7.98529V20.6912C20.3824 21.1054 20.0466 21.4412 19.6324 21.4412H15.3988C15.3982 21.4412 15.3976 21.4412 15.3971 21.4412H11.1618H6.92647H3.75C3.33579 21.4412 3 21.1054 3 20.6912C3 20.277 3.33579 19.9412 3.75 19.9412H6.17647V3.75ZM10.4118 4.5V19.9412H7.67647V4.5H10.4118ZM16.1471 19.9412V8.73529H18.8824V19.9412H16.1471Z" fill="#282B35"/>
</svg>
