<svg width="24" height="24" viewBox="0 0 24 24" fill="none" xmlns="http://www.w3.org/2000/svg">
<path fill-rule="evenodd" clip-rule="evenodd" d="M15.9965 4.64561C16.3645 4.27765 16.8636 4.07094 17.3839 4.07094C17.6416 4.07094 17.8967 4.12169 18.1348 4.22029C18.3728 4.31889 18.5891 4.46342 18.7713 4.64561C18.9535 4.82781 19.098 5.0441 19.1966 5.28215C19.2952 5.5202 19.346 5.77534 19.346 6.033C19.346 6.29066 19.2952 6.5458 19.1966 6.78385C19.098 7.0219 18.9535 7.2382 18.7713 7.42039L18.0228 8.16895L15.248 5.39418L15.9965 4.64561ZM13.6516 4.86924L3.42956 15.0913C3.3148 15.206 3.24036 15.3549 3.21742 15.5156L2.57858 19.9911C2.54522 20.2248 2.62385 20.4606 2.79081 20.6275C2.95776 20.7944 3.19356 20.873 3.42726 20.8395L7.90154 20.1995C8.06213 20.1765 8.21095 20.1021 8.32566 19.9874L19.832 8.48105C20.1535 8.15957 20.4085 7.77791 20.5825 7.35788C20.7564 6.93784 20.846 6.48765 20.846 6.033C20.846 5.57836 20.7564 5.12817 20.5825 4.70813C20.4085 4.28809 20.1535 3.90644 19.832 3.58495C19.5105 3.26347 19.1288 3.00846 18.7088 2.83447C18.2888 2.66049 17.8386 2.57094 17.3839 2.57094C16.4657 2.57094 15.5851 2.93569 14.9359 3.58495L13.6624 4.85845C13.6606 4.86023 13.6588 4.86202 13.657 4.86382C13.6552 4.86562 13.6534 4.86743 13.6516 4.86924ZM14.1873 6.45484L16.9621 9.22961L7.44172 18.75L4.20485 19.213L4.66703 15.9751L14.1873 6.45484Z" fill="#282B35"/>
</svg>
