<svg width="24" height="24" viewBox="0 0 24 24" fill="none" xmlns="http://www.w3.org/2000/svg">
<path d="M5.33333 17H4.66667C3.95942 17 3.28115 16.719 2.78105 16.219C2.28095 15.7189 2 15.0406 2 14.3333V11.6667C2 10.9594 2.28095 10.2811 2.78105 9.78105C3.28115 9.28095 3.95942 9 4.66667 9H5.33333C5.51014 9 5.67971 9.07024 5.80474 9.19526C5.92976 9.32029 6 9.48986 6 9.66667V16.3333C6 16.5101 5.92976 16.6797 5.80474 16.8047C5.67971 16.9298 5.51014 17 5.33333 17Z" stroke="#282B35" stroke-width="1.5" stroke-linecap="round" stroke-linejoin="round"/>
<path d="M19.3333 17H18.6667C18.4899 17 18.3203 16.9298 18.1953 16.8047C18.0702 16.6797 18 16.5101 18 16.3333V9.66667C18 9.48986 18.0702 9.32029 18.1953 9.19526C18.3203 9.07024 18.4899 9 18.6667 9H19.3333C20.0406 9 20.7189 9.28095 21.219 9.78105C21.719 10.2811 22 10.9594 22 11.6667V14.3333C22 15.0406 21.719 15.7189 21.219 16.219C20.7189 16.719 20.0406 17 19.3333 17Z" stroke="#282B35" stroke-width="1.5" stroke-linecap="round" stroke-linejoin="round"/>
<path d="M5 9C5 7.14348 5.7375 5.36301 7.05025 4.05025C8.36301 2.7375 10.1435 2 12 2V2C13.8565 2 15.637 2.7375 16.9497 4.05025C18.2625 5.36301 19 7.14348 19 9" stroke="#282B35" stroke-width="1.5" stroke-linecap="round" stroke-linejoin="round"/>
<path d="M15 21H16.7143C17.3205 21 17.9019 20.6629 18.3305 20.0627C18.7592 19.4626 19 18.6487 19 17.8V17" stroke="#282B35" stroke-width="1.5" stroke-linecap="round" stroke-linejoin="round"/>
<path d="M13.6667 22H12.3333C11.9797 22 11.6406 21.842 11.3905 21.5607C11.1405 21.2794 11 20.8978 11 20.5C11 20.1022 11.1405 19.7206 11.3905 19.4393C11.6406 19.158 11.9797 19 12.3333 19H13.6667C14.0203 19 14.3594 19.158 14.6095 19.4393C14.8595 19.7206 15 20.1022 15 20.5C15 20.8978 14.8595 21.2794 14.6095 21.5607C14.3594 21.842 14.0203 22 13.6667 22Z" stroke="#282B35" stroke-width="1.5" stroke-linecap="round" stroke-linejoin="round"/>
</svg>
