<svg width="24" height="24" viewBox="0 0 24 24" fill="none" xmlns="http://www.w3.org/2000/svg">
<path fill-rule="evenodd" clip-rule="evenodd" d="M21.1437 4.26954C21.5342 3.87902 21.5342 3.24585 21.1437 2.85533C20.7531 2.46481 20.12 2.46481 19.7294 2.85533L12 10.5848L4.27054 2.85533C3.88001 2.46481 3.24685 2.46481 2.85632 2.85533C2.4658 3.24585 2.4658 3.87902 2.85632 4.26954L10.5858 11.999L2.85632 19.7285C2.4658 20.119 2.4658 20.7521 2.85632 21.1427C3.24685 21.5332 3.88001 21.5332 4.27054 21.1427L12 13.4132L19.7294 21.1427C20.12 21.5332 20.7531 21.5332 21.1437 21.1427C21.5342 20.7521 21.5342 20.119 21.1437 19.7285L13.4142 11.999L21.1437 4.26954Z" fill="#282B35"/>
</svg>
