<svg width="24" height="24" viewBox="0 0 24 24" fill="none" xmlns="http://www.w3.org/2000/svg">
<path fill-rule="evenodd" clip-rule="evenodd" d="M12.0801 2.52077C12.1166 2.10817 12.4807 1.80332 12.8933 1.83987C13.812 1.92126 14.7152 2.12859 15.5774 2.45602C15.9647 2.60307 16.1594 3.0362 16.0123 3.42343C15.8653 3.81066 15.4322 4.00537 15.0449 3.85832C14.3112 3.57969 13.5427 3.40328 12.7609 3.33402C12.3483 3.29747 12.0435 2.93336 12.0801 2.52077ZM21.8756 14.2766C21.9703 13.8734 21.7203 13.4697 21.317 13.3749C20.9138 13.2802 20.5101 13.5303 20.4154 13.9335C20.2355 14.6991 19.9539 15.437 19.5779 16.1277C19.3799 16.4915 19.5143 16.947 19.8781 17.145C20.2419 17.3431 20.6974 17.2087 20.8954 16.8449C21.3354 16.0364 21.6651 15.1726 21.8756 14.2766ZM19.0474 19.2534C19.3474 18.9677 19.3589 18.493 19.0733 18.1931C18.7876 17.8931 18.3129 17.8816 18.0129 18.1672C17.4405 18.7124 16.8017 19.1833 16.1117 19.5689C15.7501 19.771 15.6208 20.2279 15.8228 20.5895C16.0249 20.9511 16.4818 21.0804 16.8434 20.8784C17.6434 20.4314 18.3839 19.8854 19.0474 19.2534ZM18.2127 3.93018C17.8842 3.6779 17.4134 3.73972 17.1611 4.06825C16.9088 4.39677 16.9706 4.86761 17.2992 5.11988C17.9199 5.59655 18.47 6.15876 18.933 6.78976C19.178 7.12371 19.6474 7.19578 19.9814 6.95073C20.3153 6.70568 20.3874 6.23631 20.1423 5.90236C19.5955 5.15713 18.9458 4.49314 18.2127 3.93018ZM20.6034 8.1135C20.9927 7.97204 21.423 8.17297 21.5645 8.56228C21.8809 9.43308 22.0686 10.3454 22.1217 11.2703C22.1454 11.6839 21.8294 12.0384 21.4159 12.0621C21.0024 12.0858 20.6479 11.7699 20.6241 11.3563C20.5794 10.5769 20.4212 9.80826 20.1546 9.07454C20.0132 8.68523 20.2141 8.25495 20.6034 8.1135ZM10.2656 3.46812C10.6715 3.38529 10.9333 2.98915 10.8505 2.5833C10.7677 2.17745 10.3715 1.91559 9.96568 1.99841C7.32602 2.53712 5.00847 4.10237 3.52287 6.34981C2.03727 8.59726 1.50531 11.3428 2.04401 13.9825C2.58272 16.6221 4.14796 18.9397 6.39541 20.4253C7.50823 21.1609 8.75505 21.6701 10.0647 21.9238C11.3743 22.1776 12.721 22.1709 14.0281 21.9041C14.4339 21.8213 14.6958 21.4252 14.613 21.0193C14.5301 20.6135 14.134 20.3516 13.7281 20.4344C12.6141 20.6618 11.4662 20.6675 10.35 20.4512C9.23376 20.2349 8.17106 19.8009 7.22256 19.174C5.30699 17.9077 3.97288 15.9324 3.51372 13.6825C3.05456 11.4327 3.50797 9.09254 4.77419 7.17696C6.04042 5.26139 8.01575 3.92728 10.2656 3.46812Z" fill="black"/>
</svg>
