<svg width="24" height="24" viewBox="0 0 24 24" fill="none" xmlns="http://www.w3.org/2000/svg">
<path d="M7.14667 5.77778C7.2 6.56889 7.33333 7.34222 7.54667 8.08L6.48 9.14667C6.11556 8.08 5.88444 6.95111 5.80444 5.77778H7.14667ZM15.9111 16.4622C16.6667 16.6756 17.44 16.8089 18.2222 16.8622V18.1867C17.0489 18.1067 15.92 17.8756 14.8444 17.52L15.9111 16.4622ZM8 4H4.88889C4.4 4 4 4.4 4 4.88889C4 13.2356 10.7644 20 19.1111 20C19.6 20 20 19.6 20 19.1111V16.0089C20 15.52 19.6 15.12 19.1111 15.12C18.0089 15.12 16.9333 14.9422 15.9378 14.6133C15.8489 14.5778 15.7511 14.5689 15.6622 14.5689C15.4311 14.5689 15.2089 14.6578 15.0311 14.8267L13.0756 16.7822C10.56 15.4933 8.49778 13.44 7.21778 10.9244L9.17333 8.96889C9.42222 8.72 9.49333 8.37333 9.39556 8.06222C9.06667 7.06667 8.88889 6 8.88889 4.88889C8.88889 4.4 8.48889 4 8 4Z" fill="#282B35"/>
</svg>
