<svg width="24" height="24" viewBox="0 0 24 24" fill="none" xmlns="http://www.w3.org/2000/svg">
<path fill-rule="evenodd" clip-rule="evenodd" d="M8.7501 8.8001C8.7501 7.00523 10.2051 5.55019 12 5.55019C13.7949 5.55019 15.2499 7.00523 15.2499 8.8001C15.2499 10.595 13.7949 12.05 12 12.05C10.2051 12.05 8.7501 10.595 8.7501 8.8001ZM12 4.05019C9.3767 4.05019 7.2501 6.1768 7.2501 8.8001C7.2501 11.4234 9.3767 13.55 12 13.55C14.6233 13.55 16.7499 11.4234 16.7499 8.8001C16.7499 6.1768 14.6233 4.05019 12 4.05019ZM12 13.65C10.4304 13.65 8.90394 14.1663 7.63085 15.1212C6.35847 16.0755 5.40306 17.4193 4.88864 18.9627C4.75766 19.3557 4.97004 19.7804 5.363 19.9114C5.75597 20.0423 6.1807 19.83 6.31168 19.437C6.73298 18.173 7.51094 17.0861 8.53085 16.3212C9.55006 15.5568 10.7621 15.15 12 15.15C13.2379 15.15 14.4499 15.5568 15.4691 16.3212C16.4891 17.0861 17.267 18.173 17.6883 19.437C17.8193 19.83 18.244 20.0423 18.637 19.9114C19.03 19.7804 19.2423 19.3557 19.1114 18.9627C18.5969 17.4193 17.6415 16.0755 16.3691 15.1212C15.0961 14.1663 13.5696 13.65 12 13.65Z" fill="#282B35"/>
</svg>
