<svg width="24" height="24" viewBox="0 0 24 24" fill="none" xmlns="http://www.w3.org/2000/svg">
<path fill-rule="evenodd" clip-rule="evenodd" d="M14.6744 4.47638C15.6203 4.13569 16.6625 4.1829 17.5737 4.60764C18.4817 5.03873 19.1825 5.81134 19.5232 6.75705C19.864 7.70309 19.8167 8.7455 19.3918 9.65683L19.3914 9.65786L18.0113 12.5908L18.0108 12.5918C17.5798 13.5005 16.8068 14.2018 15.8606 14.5426C14.9144 14.8834 13.8719 14.8361 12.9605 14.411C12.5046 14.196 12.0962 13.8921 11.7594 13.517C11.4223 13.1416 11.1637 12.7026 10.9988 12.2259C10.8634 11.8344 10.4363 11.6268 10.0449 11.7622C9.65339 11.8976 9.44581 12.3247 9.5812 12.7161C9.81149 13.382 10.1726 13.9951 10.6434 14.5192C11.1141 15.0434 11.685 15.4682 12.3223 15.7685L12.642 15.09L12.3247 15.7696C13.5955 16.3629 15.0494 16.4291 16.3689 15.9539C17.6883 15.4786 18.7661 14.5005 19.3667 13.2332L19.3676 13.2313L20.7496 10.2943L20.7507 10.2921C21.3436 9.02149 21.4096 7.56786 20.9344 6.24867C20.4592 4.92949 19.4813 3.85192 18.2143 3.25129L18.2143 3.25128L18.2103 3.24941C16.9395 2.65614 15.4856 2.58989 14.1661 3.06513C12.8467 3.54037 11.7689 4.51848 11.1683 5.78579C10.9909 6.1601 11.1505 6.60734 11.5248 6.78473C11.8991 6.96213 12.3463 6.80251 12.5237 6.4282C12.9546 5.51902 13.7278 4.81732 14.6744 4.47638ZM8.63991 9.55645C9.58587 9.21568 10.6282 9.26297 11.5394 9.68796C12.071 9.93899 12.5369 10.3102 12.9004 10.7722C13.2643 11.2345 13.5156 11.7752 13.6345 12.3515C13.7181 12.7572 14.1148 13.0182 14.5205 12.9345C14.9262 12.8509 15.1872 12.4542 15.1035 12.0485C14.9377 11.2443 14.587 10.4898 14.0792 9.84455C13.5715 9.1993 12.9206 8.68102 12.178 8.33069L11.858 9.00904L12.1753 8.32942C10.9046 7.73618 9.45085 7.66995 8.13154 8.14522C6.81222 8.62049 5.73464 9.59861 5.13422 10.8659L5.13338 10.8677L3.75138 13.8047L3.75041 13.8067C3.15714 15.0775 3.09089 16.5314 3.56613 17.8509C4.04137 19.1703 5.01948 20.2481 6.2868 20.8487L6.608 20.171L6.29073 20.8506C7.5615 21.4439 9.01542 21.5101 10.3349 21.0349C11.6543 20.5596 12.7321 19.5815 13.3327 18.3142C13.5101 17.9399 13.3505 17.4927 12.9762 17.3153C12.6019 17.1379 12.1547 17.2975 11.9773 17.6718C11.5464 18.581 10.7732 19.2827 9.82658 19.6236C8.88068 19.9643 7.83846 19.9171 6.92727 19.4923C6.01903 19.0613 5.31808 18.2885 4.97738 17.3426C4.63656 16.3963 4.68394 15.3537 5.10913 14.4423L5.10959 14.4413L6.48978 11.5081L6.4902 11.5072C6.921 10.5986 7.69381 9.89727 8.63991 9.55645Z" fill="#282B35"/>
</svg>
