<svg width="24" height="24" viewBox="0 0 24 24" fill="none" xmlns="http://www.w3.org/2000/svg">
<path fill-rule="evenodd" clip-rule="evenodd" d="M7.42249 5.90063C8.32972 5.29443 9.39634 4.97088 10.4875 4.97088C11.9506 4.97088 13.3538 5.55211 14.3884 6.58671C15.423 7.62131 16.0043 9.02453 16.0043 10.4877C16.0043 11.5788 15.6807 12.6454 15.0745 13.5526C14.4683 14.4599 13.6067 15.167 12.5986 15.5845C11.5906 16.0021 10.4813 16.1113 9.41118 15.8985C8.34103 15.6856 7.35803 15.1602 6.58649 14.3886C5.81495 13.6171 5.28953 12.6341 5.07666 11.564C4.8638 10.4938 4.97305 9.38455 5.3906 8.37649C5.80816 7.36843 6.51526 6.50682 7.42249 5.90063ZM10.4875 2.97088C9.00078 2.97088 7.54748 3.41173 6.31135 4.23769C5.07522 5.06364 4.11177 6.23761 3.54284 7.61112C2.97391 8.98464 2.82506 10.496 3.11509 11.9541C3.40513 13.4122 4.12103 14.7516 5.17228 15.8029C6.22352 16.8541 7.56289 17.57 9.021 17.86C10.4791 18.1501 11.9905 18.0012 13.364 17.4323C13.9687 17.1818 14.5347 16.8549 15.0494 16.4619L18.9058 20.3183C19.2963 20.7088 19.9295 20.7088 20.32 20.3183C20.7106 19.9278 20.7106 19.2946 20.32 18.9041L16.4633 15.0474C16.5585 14.9227 16.6499 14.7948 16.7374 14.6638C17.5634 13.4277 18.0043 11.9744 18.0043 10.4877C18.0043 8.4941 17.2123 6.58217 15.8026 5.1725C14.393 3.76282 12.481 2.97088 10.4875 2.97088Z" fill="black"/>
</svg>
