<svg width="24" height="24" viewBox="0 0 24 24" fill="none" xmlns="http://www.w3.org/2000/svg">
<path d="M20.4 20.32C20.4 20.6595 20.2639 20.9851 20.0215 21.2251C19.7791 21.4651 19.4504 21.6 19.1077 21.6H4.89231C4.54957 21.6 4.22087 21.4651 3.97851 21.2251C3.73616 20.9851 3.60001 20.6595 3.60001 20.32V3.68C3.60001 3.34052 3.73616 3.01495 3.97851 2.7749C4.22087 2.53486 4.54957 2.4 4.89231 2.4H14.0496C14.3921 2.40007 14.7206 2.53481 14.9628 2.77461L20.0218 7.78539C20.2639 8.02534 20.3999 8.35068 20.4 8.68992V20.32Z" stroke="#282B35" stroke-width="1.5" stroke-linecap="round" stroke-linejoin="round"/>
<path d="M20.4 9H15.12C14.7699 9 14.4342 8.86093 14.1866 8.61338C13.9391 8.36583 13.8 8.03009 13.8 7.68V2.4" stroke="#282B35" stroke-width="1.5" stroke-linecap="round" stroke-linejoin="round"/>
<path d="M6.77472 11.8353C6.96391 12.0834 7.21021 12.2823 7.49276 12.4151C7.7753 12.548 8.08576 12.6109 8.39782 12.5985C9.39282 12.5985 10.2 11.9941 10.2 11.2492C10.2 10.5044 9.39544 9.9009 8.40132 9.9009C7.40719 9.9009 6.60001 9.2965 6.60001 8.55081C6.60001 7.80512 7.40719 7.20159 8.40132 7.20159C8.71341 7.18896 9.02394 7.25175 9.30652 7.38461C9.58911 7.51747 9.83538 7.71648 10.0244 7.96472" stroke="#282B35" stroke-width="1.5" stroke-linecap="round" stroke-linejoin="round"/>
<path d="M8.39999 12.6V13.2" stroke="#282B35" stroke-width="1.5" stroke-linecap="round" stroke-linejoin="round"/>
<path d="M8.39999 6V7.2" stroke="#282B35" stroke-width="1.5" stroke-linecap="round" stroke-linejoin="round"/>
<path d="M12 14.4H17.4" stroke="#282B35" stroke-width="1.5" stroke-linecap="round" stroke-linejoin="round"/>
<path d="M7.2 18.6H17.4" stroke="#282B35" stroke-width="1.5" stroke-linecap="round" stroke-linejoin="round"/>
</svg>
