<svg width="24" height="24" viewBox="0 0 24 24" fill="none" xmlns="http://www.w3.org/2000/svg">
<path fill-rule="evenodd" clip-rule="evenodd" d="M13.0503 2.85309C13.2913 2.80213 13.5399 2.79916 13.7821 2.84434C14.0242 2.88952 14.2551 2.98196 14.4615 3.11639C14.6679 3.25081 14.8458 3.42459 14.985 3.62779C15.1241 3.83085 15.2219 4.05931 15.2728 4.30015L15.2729 4.30063L15.3502 4.66424L19.5689 3.76755C19.974 3.68144 20.3723 3.94007 20.4584 4.34523C20.5445 4.7504 20.2859 5.14866 19.8807 5.23478L14.9822 6.27596C14.9647 6.28104 14.947 6.2855 14.929 6.28932L9.42672 7.45938C9.40647 7.46369 9.38612 7.46714 9.36573 7.46974L4.47415 8.50945C4.06898 8.59557 3.67072 8.33693 3.5846 7.93177C3.49849 7.52661 3.75712 7.12835 4.16229 7.04223L8.38066 6.14561L8.30334 5.78178L8.3032 5.78116C8.25164 5.54001 8.24816 5.29106 8.29295 5.04856C8.33778 4.80585 8.43008 4.57438 8.56457 4.36742C8.69906 4.16047 8.87308 3.9821 9.07665 3.84255C9.27999 3.70316 9.50881 3.60524 9.75003 3.55439L9.75088 3.55421L13.0495 2.85325L13.2054 3.58686L13.0503 2.85309ZM13.8054 4.61143L13.883 4.97609L9.84788 5.83375L9.77032 5.46881L9.77008 5.46767C9.75974 5.41939 9.75903 5.36955 9.768 5.321C9.77697 5.27245 9.79543 5.22615 9.82233 5.18476C9.84923 5.14336 9.88404 5.10768 9.92476 5.07977C9.96548 5.05186 10.0113 5.03226 10.0596 5.0221L10.0611 5.02177L13.3606 4.32064L13.3609 4.32058C13.409 4.31045 13.4586 4.30988 13.507 4.31889C13.5554 4.32793 13.6016 4.34642 13.6429 4.37331C13.6841 4.4002 13.7197 4.43496 13.7476 4.4756C13.7754 4.51625 13.795 4.56198 13.8052 4.61019L13.8054 4.61143ZM11.8186 10.875C11.8186 10.4608 11.4828 10.125 11.0686 10.125C10.6544 10.125 10.3186 10.4608 10.3186 10.875V16.5003C10.3186 16.9145 10.6544 17.2503 11.0686 17.2503C11.4828 17.2503 11.8186 16.9145 11.8186 16.5003V10.875ZM14.4438 10.125C14.858 10.125 15.1938 10.4608 15.1938 10.875V16.5003C15.1938 16.9145 14.858 17.2503 14.4438 17.2503C14.0296 17.2503 13.6938 16.9145 13.6938 16.5003V10.875C13.6938 10.4608 14.0296 10.125 14.4438 10.125ZM16.9752 6.74983C16.5609 6.74983 16.2252 7.08561 16.2252 7.49983C16.2252 7.91404 16.5609 8.24983 16.9752 8.24983H18.1257L17.158 19.3408L17.1578 19.344C17.15 19.438 17.107 19.5256 17.0375 19.5894C16.968 19.6531 16.877 19.6884 16.7827 19.688L16.7801 19.688H8.72889C8.63482 19.688 8.54421 19.6526 8.47501 19.5888C8.40582 19.5251 8.3631 19.4377 8.35533 19.344L8.35532 19.344L7.57753 9.97069C7.54328 9.5579 7.18087 9.25103 6.76808 9.28528C6.35528 9.31954 6.04842 9.68194 6.08267 10.0947L6.86046 19.468L7.60789 19.406L6.86046 19.468C6.89934 19.9367 7.11291 20.3736 7.45882 20.6922C7.80474 21.0108 8.25774 21.1878 8.72802 21.188H8.72845H16.7788H16.7801V20.4382L16.7776 21.188L16.7788 21.188C17.2499 21.1893 17.7043 21.0132 18.0515 20.6947C18.3986 20.3764 18.6131 19.939 18.6525 19.4698L18.6526 19.468L19.6912 7.56502C19.7094 7.35557 19.639 7.14806 19.4969 6.99307C19.3548 6.83808 19.1543 6.74983 18.944 6.74983H16.9752ZM8.72889 19.688L8.72845 20.438V19.688H8.72889ZM18.1257 8.24983L18.1968 7.43464L18.944 7.49983V8.24983H18.1257Z" fill="#282B35"/>
</svg>
