<svg width="24" height="24" viewBox="0 0 24 24" fill="none" xmlns="http://www.w3.org/2000/svg">
<path fill-rule="evenodd" clip-rule="evenodd" d="M19.4357 3.53648C18.7506 3.25263 17.9967 3.17828 17.2694 3.32282C16.5421 3.46737 15.874 3.82433 15.3495 4.34856C14.8292 4.8686 14.4735 5.53008 14.3264 6.25056H3.00201C2.5878 6.25056 2.25201 6.58635 2.25201 7.00056C2.25201 7.41477 2.5878 7.75056 3.00201 7.75056H14.3264C14.374 7.98353 14.4438 8.21253 14.5356 8.43434C14.8192 9.11953 15.2995 9.70526 15.9159 10.1175C16.5323 10.5297 17.2571 10.7499 17.9987 10.7502H17.999C18.9935 10.7502 19.9474 10.3553 20.6508 9.65217C21.3542 8.94908 21.7496 7.99543 21.75 7.00089L21.0003 7.00056H21.75C21.75 6.25902 21.5301 5.53412 21.1182 4.91753C20.7062 4.30094 20.1207 3.82033 19.4357 3.53648ZM19.5903 8.59128C20.0124 8.16943 20.2496 7.59727 20.25 7.00056L17.9993 9.25022C18.596 9.25014 19.1683 9.01312 19.5903 8.59128ZM19.8709 5.75082C20.118 6.12066 20.2499 6.55544 20.25 7.00023L17.999 9.25022C17.5542 9.24996 17.1195 9.11786 16.7498 8.8706C16.3799 8.62328 16.0917 8.27187 15.9216 7.86078C15.7515 7.44969 15.7071 6.99739 15.794 6.56106C15.8809 6.12473 16.0953 5.72398 16.4099 5.40945C16.7246 5.09493 17.1255 4.88077 17.5618 4.79405C17.9982 4.70733 18.4505 4.75194 18.8615 4.92224C19.2725 5.09254 19.6238 5.38088 19.8709 5.75082ZM10.0002 14.7498C10.2957 14.7496 10.5884 14.8077 10.8614 14.9207C11.1345 15.0337 11.3826 15.1994 11.5916 15.4083C11.8006 15.6172 11.9664 15.8653 12.0796 16.1383C12.1927 16.4113 12.2509 16.7039 12.2509 16.9994V17.0005C12.2507 17.445 12.1188 17.8795 11.8718 18.2492C11.6247 18.6191 11.2734 18.9075 10.8624 19.0778C10.4514 19.2481 9.99907 19.2927 9.56271 19.206C9.12635 19.1192 8.72549 18.9051 8.41083 18.5905C8.09617 18.276 7.88183 17.8753 7.79492 17.4389C7.708 17.0026 7.75241 16.5503 7.92253 16.1392C8.09264 15.7281 8.38083 15.3767 8.75066 15.1294C9.12048 14.8821 9.55533 14.75 10.0002 14.7498ZM13.6751 17.7494C13.5784 18.2233 13.3904 18.6764 13.1191 19.0825C12.7071 19.6991 12.1216 20.1797 11.4366 20.4635C10.7515 20.7474 9.99764 20.8217 9.27032 20.6772C8.543 20.5326 7.87487 20.1757 7.35041 19.6514C6.83028 19.1315 6.47461 18.4703 6.32745 17.75H3C2.58579 17.75 2.25 17.4142 2.25 17C2.25 16.5858 2.58579 16.25 3 16.25H6.32722C6.37478 16.0168 6.44465 15.7876 6.53652 15.5657C6.82006 14.8805 7.30041 14.2947 7.91682 13.8825C8.53323 13.4703 9.25802 13.2501 9.99957 13.2498C10.4921 13.2496 10.9799 13.3464 11.435 13.5347C11.8901 13.7231 12.3037 13.9992 12.6521 14.3474C13.0004 14.6956 13.2768 15.1091 13.4653 15.5641C13.5572 15.7859 13.6273 16.0154 13.6751 16.2494H21C21.4142 16.2494 21.75 16.5852 21.75 16.9994C21.75 17.4137 21.4142 17.7494 21 17.7494H13.6751Z" fill="#282B35"/>
</svg>
