<svg width="210" height="60" viewBox="0 0 210 60" fill="none" xmlns="http://www.w3.org/2000/svg">
<path d="M0 53.0519C0 52.6412 0.456361 52.3331 1.36908 52.1278C2.76098 51.8311 3.6737 51.5687 4.10724 51.3406C5.17969 50.7929 5.84141 49.9144 6.09241 48.7051C8.16885 38.2772 11.3976 22.6697 15.7787 1.88249C16.0525 0.627496 16.5887 0 17.3873 0C17.7296 0 17.992 0.273816 18.1746 0.821449C18.256 1.06584 18.3317 1.27387 18.4015 1.44555C18.5592 1.83339 18.9581 1.95526 19.3383 1.77981C19.6577 1.62008 19.8403 1.54022 19.8859 1.54022C20.3195 1.54022 20.5362 1.87108 20.5362 2.5328C20.5362 2.64689 20.4906 2.84084 20.3993 3.11466C20.308 3.36566 20.2624 3.5482 20.2624 3.66229C20.2624 4.08204 20.8636 3.9624 21.1975 3.70795C21.2331 3.68082 21.2697 3.65317 21.3075 3.62501C21.8264 3.23805 22.5919 3.39321 23.078 3.82067C23.1054 3.84482 23.1335 3.86918 23.1622 3.89377C23.3986 4.09662 23.8357 4.11409 24.1312 4.01558C24.2257 3.98408 24.2155 4.00112 24.3144 4.01353C24.7848 4.07258 25.02 4.42327 25.02 5.0656C25.02 5.11124 23.5938 11.0439 20.7416 22.8637C19.4638 27.838 17.7524 35.3109 15.6075 45.2824L15.2653 47.336C15.2062 47.6459 15.1472 47.9081 15.0882 48.1226C15.0344 48.3181 15.0612 48.53 15.1781 48.6956C15.3151 48.8897 15.5497 48.9888 15.7826 48.9416C17.0261 48.6893 19.8771 47.983 24.3354 46.8226C28.5796 45.7045 31.3976 45.1455 32.7895 45.1455C33.0475 45.1455 33.2289 45.1965 33.3338 45.2986C33.4968 45.4574 33.3592 45.6911 33.2049 45.8584C32.9068 46.1816 32.9634 46.6984 33.2902 46.9926C33.3287 47.0272 33.3671 47.0618 33.4056 47.0964C33.6566 47.3018 33.7821 47.5642 33.7821 47.8836C33.7821 48.1574 33.4284 48.4997 32.7211 48.9104C32.5815 48.9912 32.4517 49.067 32.3316 49.1377C31.7013 49.5092 31.6535 50.2445 32.3446 50.4849C32.4911 50.5337 32.6246 50.5842 32.745 50.6364C33.1942 50.8308 33.2104 51.3718 32.9346 51.7761C32.893 51.8371 32.8502 51.9008 32.8064 51.967C32.564 52.3338 32.6863 52.8257 33.0633 53.0519C33.3143 53.2116 33.4398 53.4512 33.4398 53.7707C33.4398 54.1358 32.5499 54.4666 30.7701 54.7633C26.389 55.6532 19.7946 56.8853 10.9869 58.4598C10.7815 58.4826 9.19566 58.8021 6.22932 59.4181C4.26697 59.806 2.68112 60 1.47176 60C0.673132 60 0.273816 59.8403 0.273816 59.5208C0.273816 59.1329 0.490588 58.8249 0.92413 58.5967C1.1094 58.5 1.26908 58.409 1.40317 58.3238C1.69391 58.1388 1.72096 57.8331 1.45039 57.6198C1.13071 57.3677 1.02246 56.8486 1.33323 56.5856C1.62072 56.3423 1.63488 55.8576 1.27997 55.7316C1.18306 55.6971 1.07585 55.6596 0.958357 55.6189C0.501997 55.482 0.273816 55.2653 0.273816 54.9686C0.273816 54.8089 0.387906 54.6264 0.616087 54.421C0.885336 54.2007 0.890092 53.875 0.575462 53.7266C0.534574 53.7073 0.491071 53.6878 0.444952 53.668C0.148317 53.5083 0 53.3029 0 53.0519Z" fill="url(#paint0_linear_485_1671)"/>
<path d="M57.8451 34.4324C57.8451 37.6726 56.4532 41.6771 53.6694 46.4461C50.6346 51.603 47.6796 54.1814 44.8046 54.1814C45.027 54.1814 44.3278 54.0079 42.7069 53.6609C42.6279 53.644 42.5453 53.6682 42.4882 53.7254C42.3685 53.8451 42.4082 54.0478 42.5645 54.1128C42.6311 54.1405 42.7003 54.1692 42.7721 54.1989C43.1299 54.347 43.0738 54.8431 42.6884 54.8808C42.0914 54.9394 41.4505 54.9686 40.7658 54.9686C38.8491 54.9686 37.1149 53.7707 35.5633 51.3748C34.1714 49.2299 33.4754 47.1306 33.4754 45.077C33.4754 36.6068 37.1913 29.7636 44.6231 24.5474C45.2274 24.1232 46 24.028 46.7092 24.2334C47.0816 24.3413 47.5077 24.4604 47.9874 24.5906C48.0298 24.6021 48.0753 24.5901 48.1063 24.559C48.1542 24.5111 48.1544 24.4335 48.1053 24.3869C47.9524 24.2417 47.7703 24.0868 47.5591 23.9222C47.1188 23.5791 47.0746 22.9103 47.5334 22.5922C48.3582 22.0202 49.0687 21.7342 49.6648 21.7342C52.2889 21.7342 54.3881 23.2744 55.9626 26.3548C57.2176 28.842 57.8451 31.5345 57.8451 34.4324ZM50.2809 35.9726C50.2809 34.7861 49.9957 33.5995 49.4252 32.413C48.7407 30.9527 47.8622 30.2225 46.7897 30.2225C45.3066 30.2225 43.9945 31.66 42.8536 34.5351C41.9181 36.931 41.4503 39.0416 41.4503 40.8671C41.4503 45.271 42.5912 47.4729 44.873 47.4729C46.7669 47.4729 48.2159 45.9555 49.2199 42.9207C49.9272 40.753 50.2809 38.437 50.2809 35.9726Z" fill="url(#paint1_linear_485_1671)"/>
<path d="M82.3872 34.4324C82.3872 37.6726 80.9953 41.6771 78.2115 46.4461C75.1767 51.603 72.2218 54.1814 69.3467 54.1814C69.5692 54.1814 68.87 54.0079 67.2491 53.6609C67.1701 53.644 67.0875 53.6682 67.0304 53.7254C66.9107 53.8451 66.9503 54.0478 67.1066 54.1128C67.1732 54.1405 67.2424 54.1692 67.3142 54.1989C67.672 54.347 67.616 54.8431 67.2306 54.8808C66.6336 54.9394 65.9927 54.9686 65.3079 54.9686C63.3912 54.9686 61.657 53.7707 60.1054 51.3748C58.7135 49.2299 58.0176 47.1306 58.0176 45.077C58.0176 36.6068 61.7335 29.7636 69.1652 24.5474C69.7696 24.1232 70.5422 24.028 71.2514 24.2334C71.6238 24.3413 72.0499 24.4604 72.5296 24.5906C72.572 24.6021 72.6174 24.5901 72.6485 24.559C72.6964 24.5111 72.6965 24.4335 72.6474 24.3869C72.4945 24.2417 72.3125 24.0868 72.1012 23.9222C71.6609 23.5791 71.6168 22.9103 72.0755 22.5922C72.9004 22.0202 73.6109 21.7342 74.207 21.7342C76.831 21.7342 78.9303 23.2744 80.5047 26.3548C81.7597 28.842 82.3872 31.5345 82.3872 34.4324ZM74.823 35.9726C74.823 34.7861 74.5378 33.5995 73.9674 32.413C73.2828 30.9527 72.4043 30.2225 71.3319 30.2225C69.8487 30.2225 68.5367 31.66 67.3958 34.5351C66.4602 36.931 65.9925 39.0416 65.9925 40.8671C65.9925 45.271 67.1334 47.4729 69.4152 47.4729C71.3091 47.4729 72.758 45.9555 73.762 42.9207C74.4694 40.753 74.823 38.437 74.823 35.9726Z" fill="url(#paint2_linear_485_1671)"/>
<path d="M83.1758 49.7661C83.1758 41.9395 84.157 31.7627 86.1193 19.2356C86.6441 15.927 87.1576 12.6184 87.6595 9.30975C88.7092 3.6737 89.6447 0.855676 90.4662 0.855676C90.8313 0.855676 91.0138 1.08386 91.0138 1.54022C91.0138 1.69994 90.9682 1.95094 90.8769 2.29321C90.7856 2.61266 90.74 2.85225 90.74 3.01198C90.74 3.34498 91.1279 3.38346 91.4351 3.25491C91.508 3.22437 91.5859 3.19318 91.6686 3.16134C92.0493 3.01485 92.4813 3.10793 92.5897 3.50115C92.6986 3.89645 92.7551 4.47894 92.7591 5.24862C92.7595 5.3075 92.7775 5.36529 92.8113 5.41353C92.9107 5.55558 93.1124 5.5776 93.2416 5.46196C93.4402 5.28421 93.6446 5.10645 93.8546 4.92869C93.9001 4.89019 93.9462 4.85465 93.9928 4.82205C94.4656 4.49115 95.2237 4.69386 95.2237 5.27096C95.2237 5.61323 95.121 6.10382 94.9157 6.74273C94.7103 7.35881 94.6076 7.82658 94.6076 8.14604C94.6076 8.5669 95.18 8.42732 95.4383 8.09504C95.6211 7.85988 95.8391 7.60175 96.0923 7.32065C96.476 6.89476 97.2089 6.85404 97.2089 7.42727C97.2089 8.59099 96.8894 10.6218 96.2505 13.5197C95.7942 15.5961 95.3378 17.6612 94.8815 19.7148C94.2882 22.3845 93.7063 25.0428 93.1359 27.6897C92.3829 31.2721 92.0064 33.9418 92.0064 35.6988C92.0064 36.2008 92.1661 36.4518 92.4856 36.4518C92.7366 36.4518 94.4707 33.9989 97.6881 29.093C100.905 24.1871 102.891 21.7342 103.644 21.7342C104.511 21.7342 105.652 22.3388 107.066 23.5482C108.481 24.7347 109.188 25.7159 109.188 26.4917C109.188 29.3668 108.47 32.3331 107.032 35.3908C105.711 38.2093 104.007 40.6347 101.921 42.6669C101.797 42.7881 101.597 42.78 101.481 42.651C101.42 42.5833 101.392 42.492 101.404 42.4018C101.505 41.6739 101.556 41.2993 101.556 41.2778C101.556 40.8955 101.033 40.8916 100.763 41.1615C100.356 41.5675 100.152 42.1196 100.152 42.818C100.152 43.4797 100.518 44.1757 101.248 44.9059C102.001 45.6361 102.708 46.0011 103.37 46.0011C104.26 46.0011 105.355 45.3508 106.656 44.0502C107.53 43.1106 108.404 42.1606 109.278 41.2C109.343 41.1277 109.453 41.1173 109.532 41.1759C109.609 41.2339 109.63 41.3407 109.583 41.4249C109.329 41.875 109.023 42.5065 108.663 43.3194C108.583 43.5008 108.6 43.7453 108.704 43.9143C108.92 44.2654 108.944 44.7278 108.682 45.0455C108.277 45.5348 107.798 46.1598 107.243 46.9207C107.143 47.0582 107.167 47.2497 107.296 47.3596C107.42 47.464 107.601 47.4621 107.723 47.3564C108.068 47.0577 108.526 46.673 109.096 46.2021C109.187 46.1269 109.321 46.1333 109.404 46.2168C109.478 46.2912 109.492 46.4064 109.445 46.5003C109.37 46.6469 109.29 46.8318 109.204 47.055C109.102 47.3193 109.129 47.6147 109.264 47.8634L109.27 47.8732C109.394 48.1 109.433 48.3669 109.342 48.609C108.89 49.8246 107.675 51.3284 105.697 53.1204C103.507 55.0827 101.795 56.0639 100.563 56.0639C99.6504 56.0639 98.327 54.9572 96.5928 52.7439C94.9271 50.6218 94.0942 49.1158 94.0942 48.2259C94.0942 47.6326 95.4861 45.1911 98.2699 40.9013C101.054 36.5887 102.446 34.17 102.446 33.6452C102.446 33.2801 102.195 33.0975 101.693 33.0975C100.643 33.0975 98.3726 36.2008 94.8815 42.4073C92.5768 46.5374 90.5917 50.3708 88.9259 53.9076C88.7434 54.3183 88.4125 54.5237 87.9334 54.5237C87.1458 54.5237 86.5865 54.1464 86.2556 53.3918C86.2074 53.2817 86.1882 53.1613 86.1866 53.0411C86.1835 52.7975 86.1741 52.5676 86.1583 52.3515C86.1106 51.6978 85.4004 51.5285 85.0904 52.1061C84.9199 52.4235 84.4565 52.6967 84.1701 52.478C83.5072 51.9718 83.1758 51.0678 83.1758 49.7661Z" fill="url(#paint3_linear_485_1671)"/>
<path d="M141.026 6.1713C126.656 6.1713 115.301 16.9662 115.301 30.8454C115.301 44.6545 126.656 55.6598 141.026 55.6598C155.326 55.6598 166.682 44.6545 166.682 30.8454C166.682 17.0363 155.326 6.1713 141.026 6.1713ZM141.026 11.4987C151.962 11.4987 160.934 20.0505 160.934 30.8454C160.934 41.6404 151.962 50.2623 141.026 50.2623C130.091 50.2623 120.979 41.6404 120.979 30.8454C120.979 20.0505 130.091 11.4987 141.026 11.4987Z" fill="#282B35"/>
<path d="M208.633 55.3794V6.31149H203.096V45.7761L173.655 6.31149H167.837V55.3794H173.445V15.9849L202.885 55.3794H208.633Z" fill="#282B35"/>
<defs>
<linearGradient id="paint0_linear_485_1671" x1="54.8338" y1="0" x2="54.8338" y2="60" gradientUnits="userSpaceOnUse">
<stop stop-color="#4779FA"/>
<stop offset="1" stop-color="#3834EF"/>
</linearGradient>
<linearGradient id="paint1_linear_485_1671" x1="54.8338" y1="0" x2="54.8338" y2="60" gradientUnits="userSpaceOnUse">
<stop stop-color="#4779FA"/>
<stop offset="1" stop-color="#3834EF"/>
</linearGradient>
<linearGradient id="paint2_linear_485_1671" x1="54.8338" y1="0" x2="54.8338" y2="60" gradientUnits="userSpaceOnUse">
<stop stop-color="#4779FA"/>
<stop offset="1" stop-color="#3834EF"/>
</linearGradient>
<linearGradient id="paint3_linear_485_1671" x1="54.8338" y1="0" x2="54.8338" y2="60" gradientUnits="userSpaceOnUse">
<stop stop-color="#4779FA"/>
<stop offset="1" stop-color="#3834EF"/>
</linearGradient>
</defs>
</svg>
